<?xml version="1.0" encoding="UTF-8" standalone="no"?>
<!DOCTYPE svg PUBLIC "-//W3C//DTD SVG 1.1//EN"
 "http://www.w3.org/Graphics/SVG/1.1/DTD/svg11.dtd">
<!-- Generated by graphviz version 14.1.5 (20260411.2331)
 -->
<!-- Title: SKG_Architecture Pages: 1 -->
<svg width="485pt" height="820pt"
 viewBox="0.00 0.00 485.00 820.00" xmlns="http://www.w3.org/2000/svg" xmlns:xlink="http://www.w3.org/1999/xlink">
<g id="graph0" class="graph" transform="scale(1 1) rotate(0) translate(4 815.53)">
<title>SKG_Architecture</title>
<polygon fill="white" stroke="none" points="-4,4 -4,-815.53 481.17,-815.53 481.17,4 -4,4"/>
<text xml:space="preserve" text-anchor="middle" x="238.58" y="-5.35" font-family="Helvetica,sans-Serif" font-size="12.00">Figure 1. SKG Architecture: capability&#45;token enforcement at the WASM import layer</text>
<!-- user -->
<g id="node1" class="node">
<title>user</title>
<path fill="#dde6f4" stroke="#314466" d="M185.04,-811.53C185.04,-811.53 120.87,-811.53 120.87,-811.53 114.87,-811.53 108.87,-805.53 108.87,-799.53 108.87,-799.53 108.87,-785.61 108.87,-785.61 108.87,-779.61 114.87,-773.61 120.87,-773.61 120.87,-773.61 185.04,-773.61 185.04,-773.61 191.04,-773.61 197.04,-779.61 197.04,-785.61 197.04,-785.61 197.04,-799.53 197.04,-799.53 197.04,-805.53 191.04,-811.53 185.04,-811.53"/>
<text xml:space="preserve" text-anchor="middle" x="152.96" y="-788.12" font-family="Helvetica,sans-Serif" font-size="11.00">User request</text>
</g>
<!-- norm -->
<g id="node2" class="node">
<title>norm</title>
<path fill="#f3f6fb" stroke="#314466" d="M191.42,-728.61C191.42,-728.61 114.5,-728.61 114.5,-728.61 108.5,-728.61 102.5,-722.61 102.5,-716.61 102.5,-716.61 102.5,-702.69 102.5,-702.69 102.5,-696.69 108.5,-690.69 114.5,-690.69 114.5,-690.69 191.42,-690.69 191.42,-690.69 197.42,-690.69 203.42,-696.69 203.42,-702.69 203.42,-702.69 203.42,-716.61 203.42,-716.61 203.42,-722.61 197.42,-728.61 191.42,-728.61"/>
<text xml:space="preserve" text-anchor="middle" x="152.96" y="-705.2" font-family="Helvetica,sans-Serif" font-size="11.00">Task normalizer</text>
</g>
<!-- user&#45;&gt;norm -->
<g id="edge1" class="edge">
<title>user&#45;&gt;norm</title>
<path fill="none" stroke="#314466" d="M152.96,-773.34C152.96,-773.34 152.96,-737.58 152.96,-737.58"/>
<polygon fill="#314466" stroke="#314466" points="155.41,-737.58 152.96,-730.58 150.51,-737.58 155.41,-737.58"/>
</g>
<!-- router -->
<g id="node3" class="node">
<title>router</title>
<path fill="#fff7da" stroke="#314466" d="M198.92,-645.69C198.92,-645.69 107,-645.69 107,-645.69 101,-645.69 95,-639.69 95,-633.69 95,-633.69 95,-595.77 95,-595.77 95,-589.77 101,-583.77 107,-583.77 107,-583.77 198.92,-583.77 198.92,-583.77 204.92,-583.77 210.92,-589.77 210.92,-595.77 210.92,-595.77 210.92,-633.69 210.92,-633.69 210.92,-639.69 204.92,-645.69 198.92,-645.69"/>
<text xml:space="preserve" text-anchor="middle" x="152.96" y="-622.28" font-family="Helvetica,sans-Serif" font-size="11.00">Router</text>
<text xml:space="preserve" text-anchor="middle" x="152.96" y="-610.28" font-family="Helvetica,sans-Serif" font-size="11.00">exact, FTS, vector,</text>
<text xml:space="preserve" text-anchor="middle" x="152.96" y="-598.28" font-family="Helvetica,sans-Serif" font-size="11.00">graph composition</text>
</g>
<!-- norm&#45;&gt;router -->
<g id="edge2" class="edge">
<title>norm&#45;&gt;router</title>
<path fill="none" stroke="#314466" d="M152.96,-690.44C152.96,-690.44 152.96,-654.38 152.96,-654.38"/>
<polygon fill="#314466" stroke="#314466" points="155.41,-654.38 152.96,-647.38 150.51,-654.38 155.41,-654.38"/>
</g>
<!-- candidates -->
<g id="node4" class="node">
<title>candidates</title>
<path fill="#f3f6fb" stroke="#314466" d="M194.04,-538.77C194.04,-538.77 111.87,-538.77 111.87,-538.77 105.87,-538.77 99.87,-532.77 99.87,-526.77 99.87,-526.77 99.87,-512.85 99.87,-512.85 99.87,-506.85 105.87,-500.85 111.87,-500.85 111.87,-500.85 194.04,-500.85 194.04,-500.85 200.04,-500.85 206.04,-506.85 206.04,-512.85 206.04,-512.85 206.04,-526.77 206.04,-526.77 206.04,-532.77 200.04,-538.77 194.04,-538.77"/>
<text xml:space="preserve" text-anchor="middle" x="152.96" y="-515.36" font-family="Helvetica,sans-Serif" font-size="11.00">Candidate graph</text>
</g>
<!-- router&#45;&gt;candidates -->
<g id="edge3" class="edge">
<title>router&#45;&gt;candidates</title>
<path fill="none" stroke="#314466" d="M152.96,-583.39C152.96,-583.39 152.96,-547.74 152.96,-547.74"/>
<polygon fill="#314466" stroke="#314466" points="155.41,-547.74 152.96,-540.74 150.51,-547.74 155.41,-547.74"/>
</g>
<!-- policy -->
<g id="node5" class="node">
<title>policy</title>
<path fill="#fff7da" stroke="#314466" d="M224.79,-455.85C224.79,-455.85 81.12,-455.85 81.12,-455.85 75.12,-455.85 69.12,-449.85 69.12,-443.85 69.12,-443.85 69.12,-417.93 69.12,-417.93 69.12,-411.93 75.12,-405.93 81.12,-405.93 81.12,-405.93 224.79,-405.93 224.79,-405.93 230.79,-405.93 236.79,-411.93 236.79,-417.93 236.79,-417.93 236.79,-443.85 236.79,-443.85 236.79,-449.85 230.79,-455.85 224.79,-455.85"/>
<text xml:space="preserve" text-anchor="middle" x="152.96" y="-432.44" font-family="Helvetica,sans-Serif" font-size="11.00">Policy engine</text>
<text xml:space="preserve" text-anchor="middle" x="152.96" y="-420.44" font-family="Helvetica,sans-Serif" font-size="11.00">requested &#45;&gt; granted handles</text>
</g>
<!-- candidates&#45;&gt;policy -->
<g id="edge4" class="edge">
<title>candidates&#45;&gt;policy</title>
<path fill="none" stroke="#314466" d="M152.96,-500.52C152.96,-500.52 152.96,-464.74 152.96,-464.74"/>
<polygon fill="#314466" stroke="#314466" points="155.41,-464.74 152.96,-457.74 150.51,-464.74 155.41,-464.74"/>
</g>
<!-- runtime -->
<g id="node6" class="node">
<title>runtime</title>
<path fill="#ffe2c7" stroke="#314466" d="M232.29,-360.93C232.29,-360.93 73.63,-360.93 73.63,-360.93 67.62,-360.93 61.62,-354.93 61.62,-348.93 61.62,-348.93 61.62,-323.01 61.62,-323.01 61.62,-317.01 67.62,-311.01 73.62,-311.01 73.62,-311.01 232.29,-311.01 232.29,-311.01 238.29,-311.01 244.29,-317.01 244.29,-323.01 244.29,-323.01 244.29,-348.93 244.29,-348.93 244.29,-354.93 238.29,-360.93 232.29,-360.93"/>
<text xml:space="preserve" text-anchor="middle" x="152.96" y="-337.52" font-family="Helvetica,sans-Serif" font-size="11.00">Dry&#45;run executor</text>
<text xml:space="preserve" text-anchor="middle" x="152.96" y="-325.52" font-family="Helvetica,sans-Serif" font-size="11.00">Wasmtime, granted handles only</text>
</g>
<!-- policy&#45;&gt;runtime -->
<g id="edge5" class="edge">
<title>policy&#45;&gt;runtime</title>
<path fill="none" stroke="#314466" d="M152.96,-405.45C152.96,-405.45 152.96,-369.66 152.96,-369.66"/>
<polygon fill="#314466" stroke="#314466" points="155.41,-369.66 152.96,-362.66 150.51,-369.66 155.41,-369.66"/>
</g>
<!-- verifier -->
<g id="node7" class="node">
<title>verifier</title>
<path fill="#f3f6fb" stroke="#314466" d="M179.42,-266.01C179.42,-266.01 126.5,-266.01 126.5,-266.01 120.5,-266.01 114.5,-260.01 114.5,-254.01 114.5,-254.01 114.5,-240.09 114.5,-240.09 114.5,-234.09 120.5,-228.09 126.5,-228.09 126.5,-228.09 179.42,-228.09 179.42,-228.09 185.42,-228.09 191.42,-234.09 191.42,-240.09 191.42,-240.09 191.42,-254.01 191.42,-254.01 191.42,-260.01 185.42,-266.01 179.42,-266.01"/>
<text xml:space="preserve" text-anchor="middle" x="152.96" y="-242.6" font-family="Helvetica,sans-Serif" font-size="11.00">Verifier set</text>
</g>
<!-- runtime&#45;&gt;verifier -->
<g id="edge6" class="edge">
<title>runtime&#45;&gt;verifier</title>
<path fill="none" stroke="#314466" d="M152.96,-310.73C152.96,-310.73 152.96,-274.93 152.96,-274.93"/>
<polygon fill="#314466" stroke="#314466" points="155.41,-274.93 152.96,-267.93 150.51,-274.93 155.41,-274.93"/>
</g>
<!-- rejected -->
<g id="node8" class="node">
<title>rejected</title>
<path fill="#fde2e2" stroke="#314466" d="M229.92,-174.34C229.92,-174.34 12,-174.34 12,-174.34 6,-174.34 0,-168.34 0,-162.34 0,-162.34 0,-136.42 0,-136.42 0,-130.42 6,-124.42 12,-124.42 12,-124.42 229.92,-124.42 229.92,-124.42 235.92,-124.42 241.92,-130.42 241.92,-136.42 241.92,-136.42 241.92,-162.34 241.92,-162.34 241.92,-168.34 235.92,-174.34 229.92,-174.34"/>
<text xml:space="preserve" text-anchor="middle" x="120.96" y="-150.93" font-family="Helvetica,sans-Serif" font-size="11.00">Rejected</text>
<text xml:space="preserve" text-anchor="middle" x="120.96" y="-138.93" font-family="Helvetica,sans-Serif" font-size="11.00">miss / ask question / synthesize learned node</text>
</g>
<!-- verifier&#45;&gt;rejected -->
<g id="edge7" class="edge">
<title>verifier&#45;&gt;rejected</title>
<path fill="none" stroke="#314466" d="M152.96,-227.75C152.96,-227.75 152.96,-183.08 152.96,-183.08"/>
<polygon fill="#314466" stroke="#314466" points="155.41,-183.08 152.96,-176.08 150.51,-183.08 155.41,-183.08"/>
<text xml:space="preserve" text-anchor="middle" x="132.21" y="-197.54" font-family="Helvetica,sans-Serif" font-size="9.00">reject</text>
</g>
<!-- commit -->
<g id="node9" class="node">
<title>commit</title>
<path fill="#f3f6fb" stroke="#314466" d="M368.17,-168.34C368.17,-168.34 289.75,-168.34 289.75,-168.34 283.75,-168.34 277.75,-162.34 277.75,-156.34 277.75,-156.34 277.75,-142.42 277.75,-142.42 277.75,-136.42 283.75,-130.42 289.75,-130.42 289.75,-130.42 368.17,-130.42 368.17,-130.42 374.17,-130.42 380.17,-136.42 380.17,-142.42 380.17,-142.42 380.17,-156.34 380.17,-156.34 380.17,-162.34 374.17,-168.34 368.17,-168.34"/>
<text xml:space="preserve" text-anchor="middle" x="328.96" y="-144.93" font-family="Helvetica,sans-Serif" font-size="11.00">Commit planner</text>
</g>
<!-- verifier&#45;&gt;commit -->
<g id="edge8" class="edge">
<title>verifier&#45;&gt;commit</title>
<path fill="none" stroke="#314466" d="M191.58,-246.75C243.39,-246.75 328.96,-246.75 328.96,-246.75 328.96,-246.75 328.96,-177.13 328.96,-177.13"/>
<polygon fill="#314466" stroke="#314466" points="331.41,-177.13 328.96,-170.13 326.51,-177.13 331.41,-177.13"/>
<text xml:space="preserve" text-anchor="middle" x="270.46" y="-197.54" font-family="Helvetica,sans-Serif" font-size="9.00">accept</text>
</g>
<!-- draft -->
<g id="node10" class="node">
<title>draft</title>
<path fill="#dff5e0" stroke="#314466" d="M291.04,-64.67C291.04,-64.67 208.87,-64.67 208.87,-64.67 202.87,-64.67 196.87,-58.67 196.87,-52.67 196.87,-52.67 196.87,-38.75 196.87,-38.75 196.87,-32.75 202.87,-26.75 208.87,-26.75 208.87,-26.75 291.04,-26.75 291.04,-26.75 297.04,-26.75 303.04,-32.75 303.04,-38.75 303.04,-38.75 303.04,-52.67 303.04,-52.67 303.04,-58.67 297.04,-64.67 291.04,-64.67"/>
<text xml:space="preserve" text-anchor="middle" x="249.96" y="-41.26" font-family="Helvetica,sans-Serif" font-size="11.00">Draft&#45;only output</text>
</g>
<!-- commit&#45;&gt;draft -->
<g id="edge9" class="edge">
<title>commit&#45;&gt;draft</title>
<path fill="none" stroke="#314466" d="M290.4,-130.37C290.4,-130.37 290.4,-73.47 290.4,-73.47"/>
<polygon fill="#314466" stroke="#314466" points="292.85,-73.47 290.4,-66.47 287.95,-73.47 292.85,-73.47"/>
</g>
<!-- external -->
<g id="node11" class="node">
<title>external</title>
<path fill="#dff5e0" stroke="#314466" d="M465.17,-70.67C465.17,-70.67 350.75,-70.67 350.75,-70.67 344.75,-70.67 338.75,-64.67 338.75,-58.67 338.75,-58.67 338.75,-32.75 338.75,-32.75 338.75,-26.75 344.75,-20.75 350.75,-20.75 350.75,-20.75 465.17,-20.75 465.17,-20.75 471.17,-20.75 477.17,-26.75 477.17,-32.75 477.17,-32.75 477.17,-58.67 477.17,-58.67 477.17,-64.67 471.17,-70.67 465.17,-70.67"/>
<text xml:space="preserve" text-anchor="middle" x="407.96" y="-47.26" font-family="Helvetica,sans-Serif" font-size="11.00">External send / write</text>
<text xml:space="preserve" text-anchor="middle" x="407.96" y="-35.26" font-family="Helvetica,sans-Serif" font-size="11.00">requires approval token</text>
</g>
<!-- commit&#45;&gt;external -->
<g id="edge10" class="edge">
<title>commit&#45;&gt;external</title>
<path fill="none" stroke="#314466" d="M359.46,-130.37C359.46,-130.37 359.46,-79.37 359.46,-79.37"/>
<polygon fill="#314466" stroke="#314466" points="361.91,-79.37 359.46,-72.37 357.01,-79.37 361.91,-79.37"/>
<text xml:space="preserve" text-anchor="middle" x="438.33" y="-93.87" font-family="Helvetica,sans-Serif" font-size="9.00">approval token</text>
</g>
</g>
</svg>
